<svg xmlns="http://www.w3.org/2000/svg" width="47.104" height="47.104" viewBox="0 0 47.104 47.104">
  <path id="left_button" data-name="left button" d="M24.115,47.667A23.552,23.552,0,1,1,47.667,24.115,23.548,23.548,0,0,1,24.115,47.667ZM13.3,25.729,26.166,38.6a2.27,2.27,0,0,0,3.219,0L31,36.983a2.27,2.27,0,0,0,0-3.219l-9.649-9.649L31,14.466a2.27,2.27,0,0,0,0-3.219L29.385,9.632a2.27,2.27,0,0,0-3.219,0L13.3,22.5A2.281,2.281,0,0,0,13.3,25.729Z" transform="translate(-0.563 -0.563)" fill="#34c8e8"/>
</svg>
