<svg xmlns="http://www.w3.org/2000/svg" width="51.1" height="73" viewBox="0 0 51.1 73">
  <path id="Icon_material-lightbulb-outline" data-name="Icon material-lightbulb-outline" d="M22.1,72.35A3.661,3.661,0,0,0,25.75,76h14.6A3.661,3.661,0,0,0,44,72.35V68.7H22.1ZM33.05,3a25.539,25.539,0,0,0-14.6,46.5V57.75A3.661,3.661,0,0,0,22.1,61.4H44a3.661,3.661,0,0,0,3.65-3.65V49.5A25.539,25.539,0,0,0,33.05,3Zm10.4,40.515-3.1,2.19V54.1H25.75V45.705l-3.1-2.19a18.25,18.25,0,1,1,20.8,0Z" transform="translate(-7.5 -3)" fill="#fff"/>
</svg>
