<svg xmlns="http://www.w3.org/2000/svg" width="88" height="79.2" viewBox="0 0 88 79.2">
  <path id="Icon_material-business" data-name="Icon material-business" d="M47,22.1V4.5H3V83.7H91V22.1ZM20.6,74.9H11.8V66.1h8.8Zm0-17.6H11.8V48.5h8.8Zm0-17.6H11.8V30.9h8.8Zm0-17.6H11.8V13.3h8.8ZM38.2,74.9H29.4V66.1h8.8Zm0-17.6H29.4V48.5h8.8Zm0-17.6H29.4V30.9h8.8Zm0-17.6H29.4V13.3h8.8Zm44,52.8H47V66.1h8.8V57.3H47V48.5h8.8V39.7H47V30.9H82.2ZM73.4,39.7H64.6v8.8h8.8Zm0,17.6H64.6v8.8h8.8Z" transform="translate(-3 -4.5)" fill="#fff"/>
</svg>
