<svg xmlns="http://www.w3.org/2000/svg" width="47.104" height="47.104" viewBox="0 0 47.104 47.104">
  <path id="right_icon" data-name="right icon" d="M24.115,47.667A23.552,23.552,0,1,0,.563,24.115,23.548,23.548,0,0,0,24.115,47.667ZM34.932,25.729,22.063,38.6a2.27,2.27,0,0,1-3.219,0l-1.614-1.614a2.27,2.27,0,0,1,0-3.219l9.649-9.649-9.649-9.649a2.27,2.27,0,0,1,0-3.219l1.614-1.614a2.27,2.27,0,0,1,3.219,0L34.932,22.5A2.281,2.281,0,0,1,34.932,25.729Z" transform="translate(-0.563 -0.563)" fill="#34c8e8"/>
</svg>
